<?xml version="1.0" encoding="UTF-8"?>
<svg xmlns="http://www.w3.org/2000/svg" viewBox="0 0 1200 800" role="img" aria-label="Section article">
  <defs>
    <linearGradient id="g" x1="0" y1="0" x2="1" y2="1">
      <stop offset="0%" stop-color="#0f766e"/>
      <stop offset="100%" stop-color="#101827"/>
    </linearGradient>
  </defs>
  <rect width="1200" height="800" rx="48" fill="#f8fafc"/>
  <rect x="72" y="72" width="1056" height="656" rx="40" fill="url(#g)" opacity="0.95"/>
  <circle cx="250" cy="200" r="88" fill="#ffffff" opacity="0.18"/>
  <circle cx="960" cy="620" r="136" fill="#ffffff" opacity="0.14"/>
  <path d="M214 246l36-102 36 102-102-36z" fill="#ffffff" opacity="0.9"/>
  <path d="M906 146h96v24h-96zM906 194h156v24H906zM906 242h126v24H906z" fill="#ffffff" opacity="0.9"/>
  <rect x="186" y="430" width="340" height="26" rx="13" fill="#ffffff" opacity="0.94"/>
  <rect x="186" y="478" width="270" height="26" rx="13" fill="#ffffff" opacity="0.82"/>
  <rect x="186" y="526" width="220" height="26" rx="13" fill="#ffffff" opacity="0.7"/>
  <text x="186" y="370" fill="#ffffff" font-family="Arial, Helvetica, sans-serif" font-size="58" font-weight="700">Section article</text>
  <text x="186" y="610" fill="#ffffff" font-family="Arial, Helvetica, sans-serif" font-size="24" opacity="0.92">Northstar Websites</text>
</svg>